<?xml version="1.0" encoding="UTF-8" standalone="no"?>
<!-- Created with Inkscape (http://www.inkscape.org/) -->

<svg
   xmlns:dc="http://purl.org/dc/elements/1.1/"
   xmlns:cc="http://creativecommons.org/ns#"
   xmlns:rdf="http://www.w3.org/1999/02/22-rdf-syntax-ns#"
   xmlns:svg="http://www.w3.org/2000/svg"
   xmlns="http://www.w3.org/2000/svg"
   xmlns:xlink="http://www.w3.org/1999/xlink"
   xmlns:sodipodi="http://sodipodi.sourceforge.net/DTD/sodipodi-0.dtd"
   xmlns:inkscape="http://www.inkscape.org/namespaces/inkscape"
   width="210mm"
   height="297mm"
   id="svg2994"
   version="1.1"
   inkscape:version="0.48.2 r9819"
   sodipodi:docname="broom_.svg">
  <defs
     id="defs3">
    <linearGradient
       inkscape:collect="always"
       xlink:href="#linearGradient1586"
       id="linearGradient1415"
       gradientUnits="userSpaceOnUse"
       gradientTransform="scale(0.978114,1.022376)"
       x1="123.55331"
       y1="96.999664"
       x2="137.57899"
       y2="109.63908" />
    <linearGradient
       id="linearGradient1586">
      <stop
         style="stop-color:#c57e4f;stop-opacity:1.0000000;"
         offset="0.0000000"
         id="stop1587" />
      <stop
         style="stop-color:#91371a;stop-opacity:1.0000000;"
         offset="1.0000000"
         id="stop1588" />
    </linearGradient>
    <linearGradient
       inkscape:collect="always"
       xlink:href="#linearGradient1591"
       id="linearGradient1417"
       gradientUnits="userSpaceOnUse"
       gradientTransform="scale(0.977105,1.023431)"
       x1="163.94476"
       y1="38.636688"
       x2="194.7083"
       y2="81.276741" />
    <linearGradient
       id="linearGradient1591">
      <stop
         style="stop-color:#d5cb4f;stop-opacity:1.0000000;"
         offset="0.0000000"
         id="stop1592" />
      <stop
         style="stop-color:#cda81f;stop-opacity:1.0000000;"
         offset="1.0000000"
         id="stop1593" />
    </linearGradient>
    <linearGradient
       inkscape:collect="always"
       xlink:href="#linearGradient1586"
       id="linearGradient3074"
       gradientUnits="userSpaceOnUse"
       gradientTransform="scale(0.978114,1.022376)"
       x1="123.55331"
       y1="96.999664"
       x2="137.57899"
       y2="109.63908" />
    <linearGradient
       inkscape:collect="always"
       xlink:href="#linearGradient1591"
       id="linearGradient3076"
       gradientUnits="userSpaceOnUse"
       gradientTransform="scale(0.977105,1.023431)"
       x1="163.94476"
       y1="38.636688"
       x2="194.7083"
       y2="81.276741" />
  </defs>
  <sodipodi:namedview
     inkscape:document-units="mm"
     id="base"
     pagecolor="#ffffff"
     bordercolor="#666666"
     borderopacity="1.0"
     inkscape:pageopacity="0.0"
     inkscape:pageshadow="2"
     inkscape:zoom="0.56159373"
     inkscape:cx="159.25996"
     inkscape:cy="526.18109"
     inkscape:current-layer="layer1"
     showgrid="false"
     inkscape:window-width="1152"
     inkscape:window-height="808"
     inkscape:window-x="-4"
     inkscape:window-y="-4"
     inkscape:window-maximized="1" />
  <metadata
     id="metadata4">
    <rdf:RDF>
      <cc:Work
         rdf:about="">
        <dc:format>image/svg+xml</dc:format>
        <dc:type
           rdf:resource="http://purl.org/dc/dcmitype/StillImage" />
        <dc:title></dc:title>
      </cc:Work>
    </rdf:RDF>
  </metadata>
  <g
     inkscape:label="Layer 1"
     inkscape:groupmode="layer"
     id="layer1">
    <g
       id="g3068"
       transform="matrix(3.9542909,-2.0362637,2.0362637,3.9542909,-1975.215,-2557.6085)">
      <g
         transform="matrix(0.102151,1.221598,1.221598,-0.102151,21.2234,714.36985)"
         id="g2332">
        <path
           style="fill:url(#linearGradient3074);fill-opacity:1;fill-rule:evenodd;stroke:none"
           d="m 66.592037,165.0224 c 0,0.34033 47.272473,-57.36061 49.446793,-59.11435 2.87081,-3.48527 9.28949,-9.71851 12.27562,-12.12702 4.28208,-3.453762 8.67829,-9.815945 11.5491,-11.311165 2.9148,-0.637959 5.45242,1.914999 4.81446,4.866902 -1.83009,1.275917 -5.85575,4.338 -10.47906,8.622303 -5.62787,5.10367 -16.25304,19.4921 -17.43359,20.4443 -1.71469,1.383 -43.819413,54.60729 -45.223703,54.60729 -3.4851,0 -4.94962,-3.2942 -4.94962,-5.98826 z"
           id="path919"
           sodipodi:nodetypes="ccccccccc"
           inkscape:connector-curvature="0" />
        <path
           style="fill:url(#linearGradient3076);fill-opacity:1;fill-rule:evenodd;stroke:none"
           d="m 168.8125,29.21875 c -4.88144,7.339316 -13.46771,17.425924 -15.75,18.5625 -12.34399,10.087896 -12.13342,18.16735 -8.15625,23.09375 -5.72346,4.313706 -7.375,7.931171 -7.375,11.8125 1.5749,1.913875 3.01627,6.59375 8.8125,6.59375 3.09798,3e-6 9.80102,-5.021347 10.78125,-9.0625 1.64546,0.497347 3.41542,0.925747 5.34375,1.28125 7.01472,-0.263986 11.70585,-6.377128 15.80383,-10.695057 8.01356,-6.8088 13.48754,-18.009114 16.60242,-28.367443 -0.77577,-0.546899 -2.89453,-2.077437 -1.75,-3.40625 -1.80173,-1.118366 -7.4865,-1.839008 -6.6875,-3.71875 -2.19007,-1.234113 -7.32113,-0.183423 -5.96875,-2.65625 -2.43568,-1.210143 -8.71256,-0.465426 -4.6875,-2.75 -2.28838,-1.021885 -5.22061,-0.01815 -6.96875,-0.6875 z"
           id="path920"
           sodipodi:nodetypes="cccccccccccccc"
           inkscape:connector-curvature="0" />
        <path
           style="fill:#000000;fill-opacity:1;fill-rule:evenodd;stroke:none"
           d="m 168.6875,27.90625 c -4.20944,6.145714 -8.81441,12.047415 -14.0625,17.34375 -2.3392,1.894869 -4.737,3.763097 -6.75,6.03125 -3.5726,3.86753 -6.76699,9.050407 -5.6875,14.53125 0.31195,1.789661 1.25943,3.331332 2.34375,4.75 -6.13157,4.516041 -7.96875,8.460022 -7.96875,12.59375 l 0,0.25 0.15625,0.15625 c 0.0842,0.10227 0.25571,0.373515 0.34375,0.5 -1.63668,1.51631 -3.14643,3.212856 -4.6875,4.8125 -2.13292,2.490752 -4.58562,4.663666 -7.15625,6.6875 -3.86165,3.220162 -46.560999,53.72651 -49.931009,57.46364 -3.28638,3.37853 -5.99527,7.26552 -8.9375,10.9375 -1.02345,0.96892 -0.75284,1.25833 -0.78125,2.15625 0.17542,2.75204 2.22138,5.57037 5.15625,5.65625 1.86101,0.022 2.77696,-2.00138 3.875,-3.21875 1.32627,-1.76515 41.513489,-50.75459 43.118509,-52.27614 5.17185,-6.37335 10.07571,-13.01571 15.84375,-18.875 2.87051,-2.758998 5.96264,-5.309359 9.15625,-7.71875 0.95014,0.386766 1.9725,0.71875 3.28125,0.71875 2.0233,4e-6 4.73675,-1.54133 7.125,-3.5625 2.21671,-1.875988 4.0653,-4.190162 4.375,-6.46875 0.53266,0.15277 4.90177,1.944289 6.84888,1.411008 4.96938,-0.771053 9.2414,-4.899421 12.46362,-8.473508 1.12079,-1.097342 1.42011,-1.80791 1.81961,-2.882244 1.09505,-0.488988 3.68136,-2.722882 4.61789,-3.992756 5.65762,-7.392587 9.76072,-15.925815 12.46875,-24.8125 C 194.84787,40.906651 192.66732,39.715894 194,38.5 c -0.008,-0.877418 -2.21601,-1.230542 -3.09375,-1.625 -1.05895,-0.565038 -4.12269,-0.66173 -3.59375,-2.3125 -0.97995,-0.926016 -2.80423,-1.036916 -4.1875,-1.1875 -1.6655,0.190061 -2.15333,-0.692421 -1.90625,-1.65625 -1.76417,-0.98087 -3.84378,-0.871399 -5.75,-1.34375 0.22321,-0.525568 2.60575,-0.981623 1.25,-1.34375 -2.32841,-1.357745 -5.08261,-0.400632 -7.5625,-0.96875 C 169,28.01042 168.84375,27.958333 168.6875,27.90625 z m 0.5,1.4375 c 1.39022,0.571829 4.73082,-0.445162 4.9375,0.78125 -1.27163,1.586503 -3.07929,3.218066 -4.25,5.09375 -3.23853,5.175924 -5.17543,9.547841 -10.65625,14.34375 -0.8062,1.156234 -3.59318,3.16528 -5.25,5.46875 4.47523,-2.133627 7.45752,-6.292522 10.4375,-10.09375 3.24526,-4.180755 5.96606,-8.793843 9.53125,-12.71875 1.42136,-1.310592 3.64629,0.142092 5.4375,0.21875 1.53645,1.290285 -2.17584,2.525996 -2.6875,4.15625 -4.49748,5.84634 -4.81683,10.454776 -10.53125,15.28125 -0.68842,1.063097 -3.10645,2.539549 -4.4375,4.71875 4.72503,-2.478458 8.25772,-7.595056 11.21875,-11.84375 2.48288,-3.530854 3.90918,-7.060708 7.125,-10 0.79019,-0.829898 0.27093,-0.847225 1.625,-0.34375 1.54987,0.412704 5.72694,0.0094 3.53125,2.46875 -4.20489,7.252195 -4.94404,11.385553 -10.59375,17.625 -0.74881,1.010937 -3.26681,4.314306 -4.84375,6.0625 4.92203,-4.311931 8.44127,-9.930083 11.96875,-15.375 1.76984,-2.823765 3.47039,-5.697038 5.0625,-8.625 1.67729,1.057561 3.68514,1.386728 5.46875,2.21875 -5.11115,7.970992 -6.31053,9.805237 -10.84375,18.125 -1.1351,0.832235 -4.5316,8.55379 -3.5,7.9375 3.68763,-7.205014 8.1555,-13.972808 12.46875,-20.8125 1.11917,-0.991917 1.87127,-4.907588 3.1875,-2.5 1.38168,1.054177 -0.56063,3.189799 -0.75,4.6875 -3.3021,8.546909 -7.71037,16.838471 -14.125,23.46875 -0.27336,0.239969 -0.30509,0.477059 -0.5708,0.728638 -0.94219,-1.867161 -4.85257,-4.442004 -5.9292,-5.259888 -5.98278,-3.586631 -8.18863,-3.702081 -14.6875,-6.0625 -0.42613,-0.202128 -3.75277,-1.553197 -4.125,-1.84375 2.3984,2.175082 3.75824,2.520152 5.375,3.5 6.34328,2.081747 13.70601,5.623968 19.0625,9.8125 -3.31696,3.1647 -6.16511,7.046724 -10.5625,8.78125 -2.22451,0.87778 -4.68987,1.853117 -7,1.078732 -0.91031,-0.185355 -4.75237,-1.433067 -5.65625,-1.703732 -0.036,-0.709901 -5.89241,-3.145671 -9.09375,-8.75 -0.004,-0.0042 -0.0277,0.0042 -0.0312,0 -0.6404,-0.750462 -1.20067,-1.535952 -1.53125,-2.5 -1.92241,-4.424485 0.0714,-9.358992 2.84375,-12.9375 2.38188,-3.177914 5.40417,-5.817728 8.53125,-8.21875 5.17962,-5.149043 9.69503,-10.970188 13.84375,-16.96875 z m -23.875,42.21875 c 0.22667,0.264153 6.81136,7.027437 10.96875,8.4375 -0.14761,1.691161 -1.79182,4.032668 -3.96875,5.875 -2.25092,1.904964 -5.01411,3.28125 -6.3125,3.28125 -0.83363,10e-7 -1.41552,-0.233314 -2.0625,-0.40625 0.35967,-0.262247 -2.03185,-1.037333 -3.25,-2.5 -0.34407,-0.01489 -2.78823,-3.177733 -2.84375,-3.25 0.0406,-3.741078 1.58106,-7.122768 7.46875,-11.4375 z m -7,12.625 c 0.81281,1.308982 1.96942,2.944035 3.78125,4.125 -0.50792,0.364241 -1.64928,1.437081 -2.09375,1.84375 -4.30222,3.456931 -8.45654,7.132629 -11.96875,11.40625 -4.01921,4.65809 -7.70625,9.59953 -11.65625,14.3125 -2.3914,2.14442 -42.643219,52.39736 -45.056009,54.52614 -1.39666,0.41789 -2.94426,-0.57951 -3.65625,-1.78125 -0.58668,-1.19464 -1.53201,-3.01743 -0.21875,-4.03125 3.0275,-3.83736 46.040559,-54.60171 49.503139,-58.06485 4.30532,-4.74507 8.12057,-9.105714 12.95912,-13.27379 2.79163,-2.546304 5.66206,-6.476176 8.40625,-9.0625 z"
           id="path1621"
           sodipodi:nodetypes="ccccccccccccccccccccccccccccccccccccccccccccccccccccccccccccccccccccccccccccccccccccccccccccccccc"
           inkscape:connector-curvature="0" />
      </g>
    </g>
  </g>
</svg>
